M48
; DRILL file {KiCad 8.0.1} date 2024-04-20T18:29:40+0100
; FORMAT={-:-/ absolute / inch / decimal}
; #@! TF.CreationDate,2024-04-20T18:29:40+01:00
; #@! TF.GenerationSoftware,Kicad,Pcbnew,8.0.1
; #@! TF.FileFunction,Plated,1,2,PTH
FMAT,2
INCH
; #@! TA.AperFunction,Plated,PTH,ViaDrill
T1C0.0039
; #@! TA.AperFunction,Plated,PTH,ComponentDrill
T2C0.0157
; #@! TA.AperFunction,Plated,PTH,ComponentDrill
T3C0.0276
; #@! TA.AperFunction,Plated,PTH,ComponentDrill
T4C0.0382
; #@! TA.AperFunction,Plated,PTH,ComponentDrill
T5C0.0476
; #@! TA.AperFunction,Plated,PTH,ComponentDrill
T6C0.0523
; #@! TA.AperFunction,Plated,PTH,ComponentDrill
T7C0.0528
; #@! TA.AperFunction,Plated,PTH,ComponentDrill
T8C0.0906
; #@! TA.AperFunction,Plated,PTH,ComponentDrill
T9C0.0945
%
G90
G05
T1
X3.1502Y-2.6153
X3.347Y-2.8397
X3.5439Y-2.8279
X3.7467Y-2.9597
X3.7467Y-3.2038
X3.7467Y-2.8429
X3.9219Y-2.8633
X3.9219Y-2.883
X3.9219Y-2.9027
X3.9219Y-2.9223
X3.975Y-2.942
X4.0144Y-2.8062
X4.0341Y-2.9223
X4.0537Y-2.9027
X4.0734Y-2.883
X4.0734Y-2.9578
X4.0931Y-2.8633
X4.0931Y-2.9834
X4.1128Y-2.8633
X4.1325Y-2.9223
X4.1344Y-2.6212
X4.1419Y-3.1743
X4.1522Y-2.9027
X4.1915Y-2.9401
X4.2427Y-2.8633
X4.2998Y-2.8318
X4.3313Y-2.692
X4.3313Y-2.8937
X4.3593Y-2.6704
X4.3628Y-2.9834
X4.3917Y-2.7421
X4.41Y-2.9578
X4.4494Y-2.9401
X4.475Y-2.9223
X4.5281Y-2.6153
X4.7152Y-2.9223
X4.7211Y-2.8937
X4.725Y-2.6153
X4.7479Y-2.6697
X4.7953Y-2.7421
X4.8894Y-3.1438
X4.9235Y-3.2335
X4.9317Y-3.2058
X5.1534Y-2.9382
X5.1935Y-2.7983
X5.2219Y-2.8653
X5.2388Y-3.0956
X5.2911Y-2.8771
X5.3195Y-3.0956
X5.3805Y-1.8633
X5.403Y-1.7779
X5.4541Y-2.7441
T2
X3.973Y-3.0566
X3.9888Y-3.0842
X4.0203Y-3.0842
X4.036Y-3.0566
X4.0518Y-3.0842
X4.0675Y-3.0566
X4.099Y-3.0566
X4.1148Y-3.0842
X4.1305Y-3.0566
X4.1463Y-3.0842
X4.1667Y-1.481
X4.1778Y-3.0842
X4.1825Y-1.4534
X4.1935Y-3.0566
X4.214Y-1.4534
X4.2297Y-1.481
X4.2455Y-1.4534
X4.2612Y-1.481
X4.2927Y-1.481
X4.3085Y-1.4534
X4.3242Y-1.481
X4.34Y-1.4534
X4.3715Y-1.4534
X4.3872Y-1.481
T3
X2.7368Y-1.5653
X2.7565Y-1.5062
X2.8156Y-1.5653
X2.8549Y-1.5062
X2.8943Y-1.5653
X2.9337Y-1.5062
X2.973Y-1.5653
X3.0321Y-1.5062
X3.0518Y-1.5653
X5.2179Y-2.9401
X5.2376Y-2.9991
X5.2967Y-2.9401
X5.336Y-2.9991
X5.3754Y-2.9401
X5.4148Y-2.9991
X5.4541Y-2.9401
X5.5132Y-2.9991
X5.5329Y-2.9401
T4
X3.46Y-1.5487
X3.5289Y-1.5487
X3.5781Y-1.3912
X3.5781Y-1.47
X3.6274Y-1.5487
X3.6766Y-1.3912
X3.6766Y-1.47
X3.7258Y-1.5487
X3.7947Y-1.5487
T5
X3.9065Y-3.2531
X3.9207Y-3.0798
X4.1002Y-1.2845
X4.1144Y-1.4578
X4.2459Y-3.0798
X4.26Y-3.2531
X4.4396Y-1.4578
X4.4537Y-1.2845
T6
X4.6874Y-1.2845
X4.9689Y-1.2845
T7
X5.5766Y-1.9621
X5.5766Y-2.3023
X5.7262Y-1.9621
X5.7262Y-2.3023
T8
X2.6356Y-1.4275
X3.153Y-1.4275
X5.1167Y-3.0779
X5.6341Y-3.0779
T9
X3.3904Y-1.2845
X3.8644Y-1.2845
M30
