%TF.GenerationSoftware,KiCad,Pcbnew,8.0.1*%
%TF.CreationDate,2024-04-20T18:29:45+01:00*%
%TF.ProjectId,usb-tester,7573622d-7465-4737-9465-722e6b696361,rev?*%
%TF.SameCoordinates,Original*%
%TF.FileFunction,Copper,L2,Bot*%
%TF.FilePolarity,Positive*%
%FSLAX46Y46*%
G04 Gerber Fmt 4.6, Leading zero omitted, Abs format (unit mm)*
G04 Created by KiCad (PCBNEW 8.0.1) date 2024-04-20 18:29:45*
%MOMM*%
%LPD*%
G01*
G04 APERTURE LIST*
%ADD10C,0.100000*%
%ADD11C,0.150000*%
%ADD12C,0.300000*%
%ADD13C,0.400000*%
%TA.AperFunction,ComponentPad*%
%ADD14C,1.815000*%
%TD*%
%TA.AperFunction,ComponentPad*%
%ADD15C,0.600000*%
%TD*%
%TA.AperFunction,ComponentPad*%
%ADD16C,2.010000*%
%TD*%
%TA.AperFunction,SMDPad,CuDef*%
%ADD17R,1.200000X0.800000*%
%TD*%
%TA.AperFunction,SMDPad,CuDef*%
%ADD18R,1.200000X0.760000*%
%TD*%
%TA.AperFunction,SMDPad,CuDef*%
%ADD19R,1.200000X0.700000*%
%TD*%
%TA.AperFunction,ComponentPad*%
%ADD20C,1.993000*%
%TD*%
%TA.AperFunction,ComponentPad*%
%ADD21C,3.450000*%
%TD*%
%TA.AperFunction,ComponentPad*%
%ADD22C,1.200000*%
%TD*%
%TA.AperFunction,ComponentPad*%
%ADD23R,1.200000X1.200000*%
%TD*%
%TA.AperFunction,ComponentPad*%
%ADD24C,3.600000*%
%TD*%
%TA.AperFunction,ComponentPad*%
%ADD25C,1.500000*%
%TD*%
%TA.AperFunction,ViaPad*%
%ADD26C,0.300000*%
%TD*%
%TA.AperFunction,Conductor*%
%ADD27C,0.200000*%
%TD*%
G04 APERTURE END LIST*
D10*
D11*
X90007200Y-104005800D02*
X198007200Y-104005800D01*
X198007200Y-136005800D01*
X90007200Y-136005800D01*
X90007200Y-104005800D01*
D10*
D11*
X10000000Y-10000000D02*
X200007200Y-10000000D01*
X200007200Y-138005800D01*
X10000000Y-138005800D01*
X10000000Y-10000000D01*
D10*
D11*
X12000000Y-12000000D02*
X198007200Y-12000000D01*
X198007200Y-136005800D01*
X12000000Y-136005800D01*
X12000000Y-12000000D01*
D10*
D11*
X60000000Y-12000000D02*
X60000000Y-10000000D01*
D10*
D11*
X110000000Y-12000000D02*
X110000000Y-10000000D01*
D10*
D11*
X160000000Y-12000000D02*
X160000000Y-10000000D01*
D10*
D11*
X36089160Y-11593604D02*
X35346303Y-11593604D01*
X35717731Y-11593604D02*
X35717731Y-10293604D01*
X35717731Y-10293604D02*
X35593922Y-10479319D01*
X35593922Y-10479319D02*
X35470112Y-10603128D01*
X35470112Y-10603128D02*
X35346303Y-10665033D01*
D10*
D11*
X85346303Y-10417414D02*
X85408207Y-10355509D01*
X85408207Y-10355509D02*
X85532017Y-10293604D01*
X85532017Y-10293604D02*
X85841541Y-10293604D01*
X85841541Y-10293604D02*
X85965350Y-10355509D01*
X85965350Y-10355509D02*
X86027255Y-10417414D01*
X86027255Y-10417414D02*
X86089160Y-10541223D01*
X86089160Y-10541223D02*
X86089160Y-10665033D01*
X86089160Y-10665033D02*
X86027255Y-10850747D01*
X86027255Y-10850747D02*
X85284398Y-11593604D01*
X85284398Y-11593604D02*
X86089160Y-11593604D01*
D10*
D11*
X135284398Y-10293604D02*
X136089160Y-10293604D01*
X136089160Y-10293604D02*
X135655826Y-10788842D01*
X135655826Y-10788842D02*
X135841541Y-10788842D01*
X135841541Y-10788842D02*
X135965350Y-10850747D01*
X135965350Y-10850747D02*
X136027255Y-10912652D01*
X136027255Y-10912652D02*
X136089160Y-11036461D01*
X136089160Y-11036461D02*
X136089160Y-11345985D01*
X136089160Y-11345985D02*
X136027255Y-11469795D01*
X136027255Y-11469795D02*
X135965350Y-11531700D01*
X135965350Y-11531700D02*
X135841541Y-11593604D01*
X135841541Y-11593604D02*
X135470112Y-11593604D01*
X135470112Y-11593604D02*
X135346303Y-11531700D01*
X135346303Y-11531700D02*
X135284398Y-11469795D01*
D10*
D11*
X185965350Y-10726938D02*
X185965350Y-11593604D01*
X185655826Y-10231700D02*
X185346303Y-11160271D01*
X185346303Y-11160271D02*
X186151064Y-11160271D01*
D10*
D11*
X60000000Y-136005800D02*
X60000000Y-138005800D01*
D10*
D11*
X110000000Y-136005800D02*
X110000000Y-138005800D01*
D10*
D11*
X160000000Y-136005800D02*
X160000000Y-138005800D01*
D10*
D11*
X36089160Y-137599404D02*
X35346303Y-137599404D01*
X35717731Y-137599404D02*
X35717731Y-136299404D01*
X35717731Y-136299404D02*
X35593922Y-136485119D01*
X35593922Y-136485119D02*
X35470112Y-136608928D01*
X35470112Y-136608928D02*
X35346303Y-136670833D01*
D10*
D11*
X85346303Y-136423214D02*
X85408207Y-136361309D01*
X85408207Y-136361309D02*
X85532017Y-136299404D01*
X85532017Y-136299404D02*
X85841541Y-136299404D01*
X85841541Y-136299404D02*
X85965350Y-136361309D01*
X85965350Y-136361309D02*
X86027255Y-136423214D01*
X86027255Y-136423214D02*
X86089160Y-136547023D01*
X86089160Y-136547023D02*
X86089160Y-136670833D01*
X86089160Y-136670833D02*
X86027255Y-136856547D01*
X86027255Y-136856547D02*
X85284398Y-137599404D01*
X85284398Y-137599404D02*
X86089160Y-137599404D01*
D10*
D11*
X135284398Y-136299404D02*
X136089160Y-136299404D01*
X136089160Y-136299404D02*
X135655826Y-136794642D01*
X135655826Y-136794642D02*
X135841541Y-136794642D01*
X135841541Y-136794642D02*
X135965350Y-136856547D01*
X135965350Y-136856547D02*
X136027255Y-136918452D01*
X136027255Y-136918452D02*
X136089160Y-137042261D01*
X136089160Y-137042261D02*
X136089160Y-137351785D01*
X136089160Y-137351785D02*
X136027255Y-137475595D01*
X136027255Y-137475595D02*
X135965350Y-137537500D01*
X135965350Y-137537500D02*
X135841541Y-137599404D01*
X135841541Y-137599404D02*
X135470112Y-137599404D01*
X135470112Y-137599404D02*
X135346303Y-137537500D01*
X135346303Y-137537500D02*
X135284398Y-137475595D01*
D10*
D11*
X185965350Y-136732738D02*
X185965350Y-137599404D01*
X185655826Y-136237500D02*
X185346303Y-137166071D01*
X185346303Y-137166071D02*
X186151064Y-137166071D01*
D10*
D11*
X10000000Y-60000000D02*
X12000000Y-60000000D01*
D10*
D11*
X10000000Y-110000000D02*
X12000000Y-110000000D01*
D10*
D11*
X10690476Y-35222176D02*
X11309523Y-35222176D01*
X10566666Y-35593604D02*
X10999999Y-34293604D01*
X10999999Y-34293604D02*
X11433333Y-35593604D01*
D10*
D11*
X11092857Y-84912652D02*
X11278571Y-84974557D01*
X11278571Y-84974557D02*
X11340476Y-85036461D01*
X11340476Y-85036461D02*
X11402380Y-85160271D01*
X11402380Y-85160271D02*
X11402380Y-85345985D01*
X11402380Y-85345985D02*
X11340476Y-85469795D01*
X11340476Y-85469795D02*
X11278571Y-85531700D01*
X11278571Y-85531700D02*
X11154761Y-85593604D01*
X11154761Y-85593604D02*
X10659523Y-85593604D01*
X10659523Y-85593604D02*
X10659523Y-84293604D01*
X10659523Y-84293604D02*
X11092857Y-84293604D01*
X11092857Y-84293604D02*
X11216666Y-84355509D01*
X11216666Y-84355509D02*
X11278571Y-84417414D01*
X11278571Y-84417414D02*
X11340476Y-84541223D01*
X11340476Y-84541223D02*
X11340476Y-84665033D01*
X11340476Y-84665033D02*
X11278571Y-84788842D01*
X11278571Y-84788842D02*
X11216666Y-84850747D01*
X11216666Y-84850747D02*
X11092857Y-84912652D01*
X11092857Y-84912652D02*
X10659523Y-84912652D01*
D10*
D11*
X11402380Y-135469795D02*
X11340476Y-135531700D01*
X11340476Y-135531700D02*
X11154761Y-135593604D01*
X11154761Y-135593604D02*
X11030952Y-135593604D01*
X11030952Y-135593604D02*
X10845238Y-135531700D01*
X10845238Y-135531700D02*
X10721428Y-135407890D01*
X10721428Y-135407890D02*
X10659523Y-135284080D01*
X10659523Y-135284080D02*
X10597619Y-135036461D01*
X10597619Y-135036461D02*
X10597619Y-134850747D01*
X10597619Y-134850747D02*
X10659523Y-134603128D01*
X10659523Y-134603128D02*
X10721428Y-134479319D01*
X10721428Y-134479319D02*
X10845238Y-134355509D01*
X10845238Y-134355509D02*
X11030952Y-134293604D01*
X11030952Y-134293604D02*
X11154761Y-134293604D01*
X11154761Y-134293604D02*
X11340476Y-134355509D01*
X11340476Y-134355509D02*
X11402380Y-134417414D01*
D10*
D11*
X200007200Y-60000000D02*
X198007200Y-60000000D01*
D10*
D11*
X200007200Y-110000000D02*
X198007200Y-110000000D01*
D10*
D11*
X198697676Y-35222176D02*
X199316723Y-35222176D01*
X198573866Y-35593604D02*
X199007199Y-34293604D01*
X199007199Y-34293604D02*
X199440533Y-35593604D01*
D10*
D11*
X199100057Y-84912652D02*
X199285771Y-84974557D01*
X199285771Y-84974557D02*
X199347676Y-85036461D01*
X199347676Y-85036461D02*
X199409580Y-85160271D01*
X199409580Y-85160271D02*
X199409580Y-85345985D01*
X199409580Y-85345985D02*
X199347676Y-85469795D01*
X199347676Y-85469795D02*
X199285771Y-85531700D01*
X199285771Y-85531700D02*
X199161961Y-85593604D01*
X199161961Y-85593604D02*
X198666723Y-85593604D01*
X198666723Y-85593604D02*
X198666723Y-84293604D01*
X198666723Y-84293604D02*
X199100057Y-84293604D01*
X199100057Y-84293604D02*
X199223866Y-84355509D01*
X199223866Y-84355509D02*
X199285771Y-84417414D01*
X199285771Y-84417414D02*
X199347676Y-84541223D01*
X199347676Y-84541223D02*
X199347676Y-84665033D01*
X199347676Y-84665033D02*
X199285771Y-84788842D01*
X199285771Y-84788842D02*
X199223866Y-84850747D01*
X199223866Y-84850747D02*
X199100057Y-84912652D01*
X199100057Y-84912652D02*
X198666723Y-84912652D01*
D10*
D11*
X199409580Y-135469795D02*
X199347676Y-135531700D01*
X199347676Y-135531700D02*
X199161961Y-135593604D01*
X199161961Y-135593604D02*
X199038152Y-135593604D01*
X199038152Y-135593604D02*
X198852438Y-135531700D01*
X198852438Y-135531700D02*
X198728628Y-135407890D01*
X198728628Y-135407890D02*
X198666723Y-135284080D01*
X198666723Y-135284080D02*
X198604819Y-135036461D01*
X198604819Y-135036461D02*
X198604819Y-134850747D01*
X198604819Y-134850747D02*
X198666723Y-134603128D01*
X198666723Y-134603128D02*
X198728628Y-134479319D01*
X198728628Y-134479319D02*
X198852438Y-134355509D01*
X198852438Y-134355509D02*
X199038152Y-134293604D01*
X199038152Y-134293604D02*
X199161961Y-134293604D01*
X199161961Y-134293604D02*
X199347676Y-134355509D01*
X199347676Y-134355509D02*
X199409580Y-134417414D01*
D10*
D11*
X113463026Y-131791928D02*
X113463026Y-130291928D01*
X113463026Y-130291928D02*
X113820169Y-130291928D01*
X113820169Y-130291928D02*
X114034455Y-130363357D01*
X114034455Y-130363357D02*
X114177312Y-130506214D01*
X114177312Y-130506214D02*
X114248741Y-130649071D01*
X114248741Y-130649071D02*
X114320169Y-130934785D01*
X114320169Y-130934785D02*
X114320169Y-131149071D01*
X114320169Y-131149071D02*
X114248741Y-131434785D01*
X114248741Y-131434785D02*
X114177312Y-131577642D01*
X114177312Y-131577642D02*
X114034455Y-131720500D01*
X114034455Y-131720500D02*
X113820169Y-131791928D01*
X113820169Y-131791928D02*
X113463026Y-131791928D01*
X115605884Y-131791928D02*
X115605884Y-131006214D01*
X115605884Y-131006214D02*
X115534455Y-130863357D01*
X115534455Y-130863357D02*
X115391598Y-130791928D01*
X115391598Y-130791928D02*
X115105884Y-130791928D01*
X115105884Y-130791928D02*
X114963026Y-130863357D01*
X115605884Y-131720500D02*
X115463026Y-131791928D01*
X115463026Y-131791928D02*
X115105884Y-131791928D01*
X115105884Y-131791928D02*
X114963026Y-131720500D01*
X114963026Y-131720500D02*
X114891598Y-131577642D01*
X114891598Y-131577642D02*
X114891598Y-131434785D01*
X114891598Y-131434785D02*
X114963026Y-131291928D01*
X114963026Y-131291928D02*
X115105884Y-131220500D01*
X115105884Y-131220500D02*
X115463026Y-131220500D01*
X115463026Y-131220500D02*
X115605884Y-131149071D01*
X116105884Y-130791928D02*
X116677312Y-130791928D01*
X116320169Y-130291928D02*
X116320169Y-131577642D01*
X116320169Y-131577642D02*
X116391598Y-131720500D01*
X116391598Y-131720500D02*
X116534455Y-131791928D01*
X116534455Y-131791928D02*
X116677312Y-131791928D01*
X117748741Y-131720500D02*
X117605884Y-131791928D01*
X117605884Y-131791928D02*
X117320170Y-131791928D01*
X117320170Y-131791928D02*
X117177312Y-131720500D01*
X117177312Y-131720500D02*
X117105884Y-131577642D01*
X117105884Y-131577642D02*
X117105884Y-131006214D01*
X117105884Y-131006214D02*
X117177312Y-130863357D01*
X117177312Y-130863357D02*
X117320170Y-130791928D01*
X117320170Y-130791928D02*
X117605884Y-130791928D01*
X117605884Y-130791928D02*
X117748741Y-130863357D01*
X117748741Y-130863357D02*
X117820170Y-131006214D01*
X117820170Y-131006214D02*
X117820170Y-131149071D01*
X117820170Y-131149071D02*
X117105884Y-131291928D01*
X118463026Y-131649071D02*
X118534455Y-131720500D01*
X118534455Y-131720500D02*
X118463026Y-131791928D01*
X118463026Y-131791928D02*
X118391598Y-131720500D01*
X118391598Y-131720500D02*
X118463026Y-131649071D01*
X118463026Y-131649071D02*
X118463026Y-131791928D01*
X118463026Y-130863357D02*
X118534455Y-130934785D01*
X118534455Y-130934785D02*
X118463026Y-131006214D01*
X118463026Y-131006214D02*
X118391598Y-130934785D01*
X118391598Y-130934785D02*
X118463026Y-130863357D01*
X118463026Y-130863357D02*
X118463026Y-131006214D01*
D10*
D11*
X90007200Y-132505800D02*
X198007200Y-132505800D01*
D10*
D11*
X91463026Y-134591928D02*
X91463026Y-133091928D01*
X92320169Y-134591928D02*
X91677312Y-133734785D01*
X92320169Y-133091928D02*
X91463026Y-133949071D01*
X92963026Y-134591928D02*
X92963026Y-133591928D01*
X92963026Y-133091928D02*
X92891598Y-133163357D01*
X92891598Y-133163357D02*
X92963026Y-133234785D01*
X92963026Y-133234785D02*
X93034455Y-133163357D01*
X93034455Y-133163357D02*
X92963026Y-133091928D01*
X92963026Y-133091928D02*
X92963026Y-133234785D01*
X94534455Y-134449071D02*
X94463027Y-134520500D01*
X94463027Y-134520500D02*
X94248741Y-134591928D01*
X94248741Y-134591928D02*
X94105884Y-134591928D01*
X94105884Y-134591928D02*
X93891598Y-134520500D01*
X93891598Y-134520500D02*
X93748741Y-134377642D01*
X93748741Y-134377642D02*
X93677312Y-134234785D01*
X93677312Y-134234785D02*
X93605884Y-133949071D01*
X93605884Y-133949071D02*
X93605884Y-133734785D01*
X93605884Y-133734785D02*
X93677312Y-133449071D01*
X93677312Y-133449071D02*
X93748741Y-133306214D01*
X93748741Y-133306214D02*
X93891598Y-133163357D01*
X93891598Y-133163357D02*
X94105884Y-133091928D01*
X94105884Y-133091928D02*
X94248741Y-133091928D01*
X94248741Y-133091928D02*
X94463027Y-133163357D01*
X94463027Y-133163357D02*
X94534455Y-133234785D01*
X95820170Y-134591928D02*
X95820170Y-133806214D01*
X95820170Y-133806214D02*
X95748741Y-133663357D01*
X95748741Y-133663357D02*
X95605884Y-133591928D01*
X95605884Y-133591928D02*
X95320170Y-133591928D01*
X95320170Y-133591928D02*
X95177312Y-133663357D01*
X95820170Y-134520500D02*
X95677312Y-134591928D01*
X95677312Y-134591928D02*
X95320170Y-134591928D01*
X95320170Y-134591928D02*
X95177312Y-134520500D01*
X95177312Y-134520500D02*
X95105884Y-134377642D01*
X95105884Y-134377642D02*
X95105884Y-134234785D01*
X95105884Y-134234785D02*
X95177312Y-134091928D01*
X95177312Y-134091928D02*
X95320170Y-134020500D01*
X95320170Y-134020500D02*
X95677312Y-134020500D01*
X95677312Y-134020500D02*
X95820170Y-133949071D01*
X97177313Y-134591928D02*
X97177313Y-133091928D01*
X97177313Y-134520500D02*
X97034455Y-134591928D01*
X97034455Y-134591928D02*
X96748741Y-134591928D01*
X96748741Y-134591928D02*
X96605884Y-134520500D01*
X96605884Y-134520500D02*
X96534455Y-134449071D01*
X96534455Y-134449071D02*
X96463027Y-134306214D01*
X96463027Y-134306214D02*
X96463027Y-133877642D01*
X96463027Y-133877642D02*
X96534455Y-133734785D01*
X96534455Y-133734785D02*
X96605884Y-133663357D01*
X96605884Y-133663357D02*
X96748741Y-133591928D01*
X96748741Y-133591928D02*
X97034455Y-133591928D01*
X97034455Y-133591928D02*
X97177313Y-133663357D01*
X99034455Y-133806214D02*
X99534455Y-133806214D01*
X99748741Y-134591928D02*
X99034455Y-134591928D01*
X99034455Y-134591928D02*
X99034455Y-133091928D01*
X99034455Y-133091928D02*
X99748741Y-133091928D01*
X100391598Y-134449071D02*
X100463027Y-134520500D01*
X100463027Y-134520500D02*
X100391598Y-134591928D01*
X100391598Y-134591928D02*
X100320170Y-134520500D01*
X100320170Y-134520500D02*
X100391598Y-134449071D01*
X100391598Y-134449071D02*
X100391598Y-134591928D01*
X101105884Y-134591928D02*
X101105884Y-133091928D01*
X101105884Y-133091928D02*
X101463027Y-133091928D01*
X101463027Y-133091928D02*
X101677313Y-133163357D01*
X101677313Y-133163357D02*
X101820170Y-133306214D01*
X101820170Y-133306214D02*
X101891599Y-133449071D01*
X101891599Y-133449071D02*
X101963027Y-133734785D01*
X101963027Y-133734785D02*
X101963027Y-133949071D01*
X101963027Y-133949071D02*
X101891599Y-134234785D01*
X101891599Y-134234785D02*
X101820170Y-134377642D01*
X101820170Y-134377642D02*
X101677313Y-134520500D01*
X101677313Y-134520500D02*
X101463027Y-134591928D01*
X101463027Y-134591928D02*
X101105884Y-134591928D01*
X102605884Y-134449071D02*
X102677313Y-134520500D01*
X102677313Y-134520500D02*
X102605884Y-134591928D01*
X102605884Y-134591928D02*
X102534456Y-134520500D01*
X102534456Y-134520500D02*
X102605884Y-134449071D01*
X102605884Y-134449071D02*
X102605884Y-134591928D01*
X103248742Y-134163357D02*
X103963028Y-134163357D01*
X103105885Y-134591928D02*
X103605885Y-133091928D01*
X103605885Y-133091928D02*
X104105885Y-134591928D01*
X104605884Y-134449071D02*
X104677313Y-134520500D01*
X104677313Y-134520500D02*
X104605884Y-134591928D01*
X104605884Y-134591928D02*
X104534456Y-134520500D01*
X104534456Y-134520500D02*
X104605884Y-134449071D01*
X104605884Y-134449071D02*
X104605884Y-134591928D01*
X106677313Y-133734785D02*
X106534456Y-133663357D01*
X106534456Y-133663357D02*
X106463027Y-133591928D01*
X106463027Y-133591928D02*
X106391599Y-133449071D01*
X106391599Y-133449071D02*
X106391599Y-133377642D01*
X106391599Y-133377642D02*
X106463027Y-133234785D01*
X106463027Y-133234785D02*
X106534456Y-133163357D01*
X106534456Y-133163357D02*
X106677313Y-133091928D01*
X106677313Y-133091928D02*
X106963027Y-133091928D01*
X106963027Y-133091928D02*
X107105885Y-133163357D01*
X107105885Y-133163357D02*
X107177313Y-133234785D01*
X107177313Y-133234785D02*
X107248742Y-133377642D01*
X107248742Y-133377642D02*
X107248742Y-133449071D01*
X107248742Y-133449071D02*
X107177313Y-133591928D01*
X107177313Y-133591928D02*
X107105885Y-133663357D01*
X107105885Y-133663357D02*
X106963027Y-133734785D01*
X106963027Y-133734785D02*
X106677313Y-133734785D01*
X106677313Y-133734785D02*
X106534456Y-133806214D01*
X106534456Y-133806214D02*
X106463027Y-133877642D01*
X106463027Y-133877642D02*
X106391599Y-134020500D01*
X106391599Y-134020500D02*
X106391599Y-134306214D01*
X106391599Y-134306214D02*
X106463027Y-134449071D01*
X106463027Y-134449071D02*
X106534456Y-134520500D01*
X106534456Y-134520500D02*
X106677313Y-134591928D01*
X106677313Y-134591928D02*
X106963027Y-134591928D01*
X106963027Y-134591928D02*
X107105885Y-134520500D01*
X107105885Y-134520500D02*
X107177313Y-134449071D01*
X107177313Y-134449071D02*
X107248742Y-134306214D01*
X107248742Y-134306214D02*
X107248742Y-134020500D01*
X107248742Y-134020500D02*
X107177313Y-133877642D01*
X107177313Y-133877642D02*
X107105885Y-133806214D01*
X107105885Y-133806214D02*
X106963027Y-133734785D01*
X107891598Y-134449071D02*
X107963027Y-134520500D01*
X107963027Y-134520500D02*
X107891598Y-134591928D01*
X107891598Y-134591928D02*
X107820170Y-134520500D01*
X107820170Y-134520500D02*
X107891598Y-134449071D01*
X107891598Y-134449071D02*
X107891598Y-134591928D01*
X108891599Y-133091928D02*
X109034456Y-133091928D01*
X109034456Y-133091928D02*
X109177313Y-133163357D01*
X109177313Y-133163357D02*
X109248742Y-133234785D01*
X109248742Y-133234785D02*
X109320170Y-133377642D01*
X109320170Y-133377642D02*
X109391599Y-133663357D01*
X109391599Y-133663357D02*
X109391599Y-134020500D01*
X109391599Y-134020500D02*
X109320170Y-134306214D01*
X109320170Y-134306214D02*
X109248742Y-134449071D01*
X109248742Y-134449071D02*
X109177313Y-134520500D01*
X109177313Y-134520500D02*
X109034456Y-134591928D01*
X109034456Y-134591928D02*
X108891599Y-134591928D01*
X108891599Y-134591928D02*
X108748742Y-134520500D01*
X108748742Y-134520500D02*
X108677313Y-134449071D01*
X108677313Y-134449071D02*
X108605884Y-134306214D01*
X108605884Y-134306214D02*
X108534456Y-134020500D01*
X108534456Y-134020500D02*
X108534456Y-133663357D01*
X108534456Y-133663357D02*
X108605884Y-133377642D01*
X108605884Y-133377642D02*
X108677313Y-133234785D01*
X108677313Y-133234785D02*
X108748742Y-133163357D01*
X108748742Y-133163357D02*
X108891599Y-133091928D01*
X110034455Y-134449071D02*
X110105884Y-134520500D01*
X110105884Y-134520500D02*
X110034455Y-134591928D01*
X110034455Y-134591928D02*
X109963027Y-134520500D01*
X109963027Y-134520500D02*
X110034455Y-134449071D01*
X110034455Y-134449071D02*
X110034455Y-134591928D01*
X111534456Y-134591928D02*
X110677313Y-134591928D01*
X111105884Y-134591928D02*
X111105884Y-133091928D01*
X111105884Y-133091928D02*
X110963027Y-133306214D01*
X110963027Y-133306214D02*
X110820170Y-133449071D01*
X110820170Y-133449071D02*
X110677313Y-133520500D01*
D10*
D11*
X90007200Y-129505800D02*
X198007200Y-129505800D01*
D10*
D12*
X177418853Y-131784128D02*
X176918853Y-131069842D01*
X176561710Y-131784128D02*
X176561710Y-130284128D01*
X176561710Y-130284128D02*
X177133139Y-130284128D01*
X177133139Y-130284128D02*
X177275996Y-130355557D01*
X177275996Y-130355557D02*
X177347425Y-130426985D01*
X177347425Y-130426985D02*
X177418853Y-130569842D01*
X177418853Y-130569842D02*
X177418853Y-130784128D01*
X177418853Y-130784128D02*
X177347425Y-130926985D01*
X177347425Y-130926985D02*
X177275996Y-130998414D01*
X177275996Y-130998414D02*
X177133139Y-131069842D01*
X177133139Y-131069842D02*
X176561710Y-131069842D01*
X178633139Y-131712700D02*
X178490282Y-131784128D01*
X178490282Y-131784128D02*
X178204568Y-131784128D01*
X178204568Y-131784128D02*
X178061710Y-131712700D01*
X178061710Y-131712700D02*
X177990282Y-131569842D01*
X177990282Y-131569842D02*
X177990282Y-130998414D01*
X177990282Y-130998414D02*
X178061710Y-130855557D01*
X178061710Y-130855557D02*
X178204568Y-130784128D01*
X178204568Y-130784128D02*
X178490282Y-130784128D01*
X178490282Y-130784128D02*
X178633139Y-130855557D01*
X178633139Y-130855557D02*
X178704568Y-130998414D01*
X178704568Y-130998414D02*
X178704568Y-131141271D01*
X178704568Y-131141271D02*
X177990282Y-131284128D01*
X179204567Y-130784128D02*
X179561710Y-131784128D01*
X179561710Y-131784128D02*
X179918853Y-130784128D01*
X180490281Y-131641271D02*
X180561710Y-131712700D01*
X180561710Y-131712700D02*
X180490281Y-131784128D01*
X180490281Y-131784128D02*
X180418853Y-131712700D01*
X180418853Y-131712700D02*
X180490281Y-131641271D01*
X180490281Y-131641271D02*
X180490281Y-131784128D01*
X180490281Y-130855557D02*
X180561710Y-130926985D01*
X180561710Y-130926985D02*
X180490281Y-130998414D01*
X180490281Y-130998414D02*
X180418853Y-130926985D01*
X180418853Y-130926985D02*
X180490281Y-130855557D01*
X180490281Y-130855557D02*
X180490281Y-130998414D01*
D10*
D11*
X91391598Y-131720500D02*
X91605884Y-131791928D01*
X91605884Y-131791928D02*
X91963026Y-131791928D01*
X91963026Y-131791928D02*
X92105884Y-131720500D01*
X92105884Y-131720500D02*
X92177312Y-131649071D01*
X92177312Y-131649071D02*
X92248741Y-131506214D01*
X92248741Y-131506214D02*
X92248741Y-131363357D01*
X92248741Y-131363357D02*
X92177312Y-131220500D01*
X92177312Y-131220500D02*
X92105884Y-131149071D01*
X92105884Y-131149071D02*
X91963026Y-131077642D01*
X91963026Y-131077642D02*
X91677312Y-131006214D01*
X91677312Y-131006214D02*
X91534455Y-130934785D01*
X91534455Y-130934785D02*
X91463026Y-130863357D01*
X91463026Y-130863357D02*
X91391598Y-130720500D01*
X91391598Y-130720500D02*
X91391598Y-130577642D01*
X91391598Y-130577642D02*
X91463026Y-130434785D01*
X91463026Y-130434785D02*
X91534455Y-130363357D01*
X91534455Y-130363357D02*
X91677312Y-130291928D01*
X91677312Y-130291928D02*
X92034455Y-130291928D01*
X92034455Y-130291928D02*
X92248741Y-130363357D01*
X92891597Y-131791928D02*
X92891597Y-130791928D01*
X92891597Y-130291928D02*
X92820169Y-130363357D01*
X92820169Y-130363357D02*
X92891597Y-130434785D01*
X92891597Y-130434785D02*
X92963026Y-130363357D01*
X92963026Y-130363357D02*
X92891597Y-130291928D01*
X92891597Y-130291928D02*
X92891597Y-130434785D01*
X93463026Y-130791928D02*
X94248741Y-130791928D01*
X94248741Y-130791928D02*
X93463026Y-131791928D01*
X93463026Y-131791928D02*
X94248741Y-131791928D01*
X95391598Y-131720500D02*
X95248741Y-131791928D01*
X95248741Y-131791928D02*
X94963027Y-131791928D01*
X94963027Y-131791928D02*
X94820169Y-131720500D01*
X94820169Y-131720500D02*
X94748741Y-131577642D01*
X94748741Y-131577642D02*
X94748741Y-131006214D01*
X94748741Y-131006214D02*
X94820169Y-130863357D01*
X94820169Y-130863357D02*
X94963027Y-130791928D01*
X94963027Y-130791928D02*
X95248741Y-130791928D01*
X95248741Y-130791928D02*
X95391598Y-130863357D01*
X95391598Y-130863357D02*
X95463027Y-131006214D01*
X95463027Y-131006214D02*
X95463027Y-131149071D01*
X95463027Y-131149071D02*
X94748741Y-131291928D01*
X96105883Y-131649071D02*
X96177312Y-131720500D01*
X96177312Y-131720500D02*
X96105883Y-131791928D01*
X96105883Y-131791928D02*
X96034455Y-131720500D01*
X96034455Y-131720500D02*
X96105883Y-131649071D01*
X96105883Y-131649071D02*
X96105883Y-131791928D01*
X96105883Y-130863357D02*
X96177312Y-130934785D01*
X96177312Y-130934785D02*
X96105883Y-131006214D01*
X96105883Y-131006214D02*
X96034455Y-130934785D01*
X96034455Y-130934785D02*
X96105883Y-130863357D01*
X96105883Y-130863357D02*
X96105883Y-131006214D01*
X97891598Y-131363357D02*
X98605884Y-131363357D01*
X97748741Y-131791928D02*
X98248741Y-130291928D01*
X98248741Y-130291928D02*
X98748741Y-131791928D01*
X99963026Y-130291928D02*
X99248740Y-130291928D01*
X99248740Y-130291928D02*
X99177312Y-131006214D01*
X99177312Y-131006214D02*
X99248740Y-130934785D01*
X99248740Y-130934785D02*
X99391598Y-130863357D01*
X99391598Y-130863357D02*
X99748740Y-130863357D01*
X99748740Y-130863357D02*
X99891598Y-130934785D01*
X99891598Y-130934785D02*
X99963026Y-131006214D01*
X99963026Y-131006214D02*
X100034455Y-131149071D01*
X100034455Y-131149071D02*
X100034455Y-131506214D01*
X100034455Y-131506214D02*
X99963026Y-131649071D01*
X99963026Y-131649071D02*
X99891598Y-131720500D01*
X99891598Y-131720500D02*
X99748740Y-131791928D01*
X99748740Y-131791928D02*
X99391598Y-131791928D01*
X99391598Y-131791928D02*
X99248740Y-131720500D01*
X99248740Y-131720500D02*
X99177312Y-131649071D01*
D10*
D11*
X176463026Y-134591928D02*
X176463026Y-133091928D01*
X177820170Y-134591928D02*
X177820170Y-133091928D01*
X177820170Y-134520500D02*
X177677312Y-134591928D01*
X177677312Y-134591928D02*
X177391598Y-134591928D01*
X177391598Y-134591928D02*
X177248741Y-134520500D01*
X177248741Y-134520500D02*
X177177312Y-134449071D01*
X177177312Y-134449071D02*
X177105884Y-134306214D01*
X177105884Y-134306214D02*
X177105884Y-133877642D01*
X177105884Y-133877642D02*
X177177312Y-133734785D01*
X177177312Y-133734785D02*
X177248741Y-133663357D01*
X177248741Y-133663357D02*
X177391598Y-133591928D01*
X177391598Y-133591928D02*
X177677312Y-133591928D01*
X177677312Y-133591928D02*
X177820170Y-133663357D01*
X178534455Y-134449071D02*
X178605884Y-134520500D01*
X178605884Y-134520500D02*
X178534455Y-134591928D01*
X178534455Y-134591928D02*
X178463027Y-134520500D01*
X178463027Y-134520500D02*
X178534455Y-134449071D01*
X178534455Y-134449071D02*
X178534455Y-134591928D01*
X178534455Y-133663357D02*
X178605884Y-133734785D01*
X178605884Y-133734785D02*
X178534455Y-133806214D01*
X178534455Y-133806214D02*
X178463027Y-133734785D01*
X178463027Y-133734785D02*
X178534455Y-133663357D01*
X178534455Y-133663357D02*
X178534455Y-133806214D01*
X181177313Y-134591928D02*
X180320170Y-134591928D01*
X180748741Y-134591928D02*
X180748741Y-133091928D01*
X180748741Y-133091928D02*
X180605884Y-133306214D01*
X180605884Y-133306214D02*
X180463027Y-133449071D01*
X180463027Y-133449071D02*
X180320170Y-133520500D01*
X182891598Y-133020500D02*
X181605884Y-134949071D01*
X184177313Y-134591928D02*
X183320170Y-134591928D01*
X183748741Y-134591928D02*
X183748741Y-133091928D01*
X183748741Y-133091928D02*
X183605884Y-133306214D01*
X183605884Y-133306214D02*
X183463027Y-133449071D01*
X183463027Y-133449071D02*
X183320170Y-133520500D01*
D10*
D11*
X90007200Y-125505800D02*
X198007200Y-125505800D01*
D10*
D13*
X91698928Y-126210238D02*
X92841785Y-126210238D01*
X92020357Y-128210238D02*
X92270357Y-126210238D01*
X93258452Y-128210238D02*
X93425119Y-126876904D01*
X93508452Y-126210238D02*
X93401309Y-126305476D01*
X93401309Y-126305476D02*
X93484643Y-126400714D01*
X93484643Y-126400714D02*
X93591786Y-126305476D01*
X93591786Y-126305476D02*
X93508452Y-126210238D01*
X93508452Y-126210238D02*
X93484643Y-126400714D01*
X94091786Y-126876904D02*
X94853690Y-126876904D01*
X94460833Y-126210238D02*
X94246548Y-127924523D01*
X94246548Y-127924523D02*
X94317976Y-128115000D01*
X94317976Y-128115000D02*
X94496548Y-128210238D01*
X94496548Y-128210238D02*
X94687024Y-128210238D01*
X95639405Y-128210238D02*
X95460833Y-128115000D01*
X95460833Y-128115000D02*
X95389405Y-127924523D01*
X95389405Y-127924523D02*
X95603690Y-126210238D01*
X97175119Y-128115000D02*
X96972738Y-128210238D01*
X96972738Y-128210238D02*
X96591785Y-128210238D01*
X96591785Y-128210238D02*
X96413214Y-128115000D01*
X96413214Y-128115000D02*
X96341785Y-127924523D01*
X96341785Y-127924523D02*
X96437024Y-127162619D01*
X96437024Y-127162619D02*
X96556071Y-126972142D01*
X96556071Y-126972142D02*
X96758452Y-126876904D01*
X96758452Y-126876904D02*
X97139404Y-126876904D01*
X97139404Y-126876904D02*
X97317976Y-126972142D01*
X97317976Y-126972142D02*
X97389404Y-127162619D01*
X97389404Y-127162619D02*
X97365595Y-127353095D01*
X97365595Y-127353095D02*
X96389404Y-127543571D01*
X98139405Y-128019761D02*
X98222738Y-128115000D01*
X98222738Y-128115000D02*
X98115595Y-128210238D01*
X98115595Y-128210238D02*
X98032262Y-128115000D01*
X98032262Y-128115000D02*
X98139405Y-128019761D01*
X98139405Y-128019761D02*
X98115595Y-128210238D01*
X98270357Y-126972142D02*
X98353690Y-127067380D01*
X98353690Y-127067380D02*
X98246548Y-127162619D01*
X98246548Y-127162619D02*
X98163214Y-127067380D01*
X98163214Y-127067380D02*
X98270357Y-126972142D01*
X98270357Y-126972142D02*
X98246548Y-127162619D01*
D10*
D11*
X91963026Y-123606214D02*
X91463026Y-123606214D01*
X91463026Y-124391928D02*
X91463026Y-122891928D01*
X91463026Y-122891928D02*
X92177312Y-122891928D01*
X92748740Y-124391928D02*
X92748740Y-123391928D01*
X92748740Y-122891928D02*
X92677312Y-122963357D01*
X92677312Y-122963357D02*
X92748740Y-123034785D01*
X92748740Y-123034785D02*
X92820169Y-122963357D01*
X92820169Y-122963357D02*
X92748740Y-122891928D01*
X92748740Y-122891928D02*
X92748740Y-123034785D01*
X93677312Y-124391928D02*
X93534455Y-124320500D01*
X93534455Y-124320500D02*
X93463026Y-124177642D01*
X93463026Y-124177642D02*
X93463026Y-122891928D01*
X94820169Y-124320500D02*
X94677312Y-124391928D01*
X94677312Y-124391928D02*
X94391598Y-124391928D01*
X94391598Y-124391928D02*
X94248740Y-124320500D01*
X94248740Y-124320500D02*
X94177312Y-124177642D01*
X94177312Y-124177642D02*
X94177312Y-123606214D01*
X94177312Y-123606214D02*
X94248740Y-123463357D01*
X94248740Y-123463357D02*
X94391598Y-123391928D01*
X94391598Y-123391928D02*
X94677312Y-123391928D01*
X94677312Y-123391928D02*
X94820169Y-123463357D01*
X94820169Y-123463357D02*
X94891598Y-123606214D01*
X94891598Y-123606214D02*
X94891598Y-123749071D01*
X94891598Y-123749071D02*
X94177312Y-123891928D01*
X95534454Y-124249071D02*
X95605883Y-124320500D01*
X95605883Y-124320500D02*
X95534454Y-124391928D01*
X95534454Y-124391928D02*
X95463026Y-124320500D01*
X95463026Y-124320500D02*
X95534454Y-124249071D01*
X95534454Y-124249071D02*
X95534454Y-124391928D01*
X95534454Y-123463357D02*
X95605883Y-123534785D01*
X95605883Y-123534785D02*
X95534454Y-123606214D01*
X95534454Y-123606214D02*
X95463026Y-123534785D01*
X95463026Y-123534785D02*
X95534454Y-123463357D01*
X95534454Y-123463357D02*
X95534454Y-123606214D01*
X98034455Y-123391928D02*
X98034455Y-124391928D01*
X97391597Y-123391928D02*
X97391597Y-124177642D01*
X97391597Y-124177642D02*
X97463026Y-124320500D01*
X97463026Y-124320500D02*
X97605883Y-124391928D01*
X97605883Y-124391928D02*
X97820169Y-124391928D01*
X97820169Y-124391928D02*
X97963026Y-124320500D01*
X97963026Y-124320500D02*
X98034455Y-124249071D01*
X98677312Y-124320500D02*
X98820169Y-124391928D01*
X98820169Y-124391928D02*
X99105883Y-124391928D01*
X99105883Y-124391928D02*
X99248740Y-124320500D01*
X99248740Y-124320500D02*
X99320169Y-124177642D01*
X99320169Y-124177642D02*
X99320169Y-124106214D01*
X99320169Y-124106214D02*
X99248740Y-123963357D01*
X99248740Y-123963357D02*
X99105883Y-123891928D01*
X99105883Y-123891928D02*
X98891598Y-123891928D01*
X98891598Y-123891928D02*
X98748740Y-123820500D01*
X98748740Y-123820500D02*
X98677312Y-123677642D01*
X98677312Y-123677642D02*
X98677312Y-123606214D01*
X98677312Y-123606214D02*
X98748740Y-123463357D01*
X98748740Y-123463357D02*
X98891598Y-123391928D01*
X98891598Y-123391928D02*
X99105883Y-123391928D01*
X99105883Y-123391928D02*
X99248740Y-123463357D01*
X99963026Y-124391928D02*
X99963026Y-122891928D01*
X99963026Y-123463357D02*
X100105884Y-123391928D01*
X100105884Y-123391928D02*
X100391598Y-123391928D01*
X100391598Y-123391928D02*
X100534455Y-123463357D01*
X100534455Y-123463357D02*
X100605884Y-123534785D01*
X100605884Y-123534785D02*
X100677312Y-123677642D01*
X100677312Y-123677642D02*
X100677312Y-124106214D01*
X100677312Y-124106214D02*
X100605884Y-124249071D01*
X100605884Y-124249071D02*
X100534455Y-124320500D01*
X100534455Y-124320500D02*
X100391598Y-124391928D01*
X100391598Y-124391928D02*
X100105884Y-124391928D01*
X100105884Y-124391928D02*
X99963026Y-124320500D01*
X101320169Y-123820500D02*
X102463027Y-123820500D01*
X102963027Y-123391928D02*
X103534455Y-123391928D01*
X103177312Y-122891928D02*
X103177312Y-124177642D01*
X103177312Y-124177642D02*
X103248741Y-124320500D01*
X103248741Y-124320500D02*
X103391598Y-124391928D01*
X103391598Y-124391928D02*
X103534455Y-124391928D01*
X104605884Y-124320500D02*
X104463027Y-124391928D01*
X104463027Y-124391928D02*
X104177313Y-124391928D01*
X104177313Y-124391928D02*
X104034455Y-124320500D01*
X104034455Y-124320500D02*
X103963027Y-124177642D01*
X103963027Y-124177642D02*
X103963027Y-123606214D01*
X103963027Y-123606214D02*
X104034455Y-123463357D01*
X104034455Y-123463357D02*
X104177313Y-123391928D01*
X104177313Y-123391928D02*
X104463027Y-123391928D01*
X104463027Y-123391928D02*
X104605884Y-123463357D01*
X104605884Y-123463357D02*
X104677313Y-123606214D01*
X104677313Y-123606214D02*
X104677313Y-123749071D01*
X104677313Y-123749071D02*
X103963027Y-123891928D01*
X105248741Y-124320500D02*
X105391598Y-124391928D01*
X105391598Y-124391928D02*
X105677312Y-124391928D01*
X105677312Y-124391928D02*
X105820169Y-124320500D01*
X105820169Y-124320500D02*
X105891598Y-124177642D01*
X105891598Y-124177642D02*
X105891598Y-124106214D01*
X105891598Y-124106214D02*
X105820169Y-123963357D01*
X105820169Y-123963357D02*
X105677312Y-123891928D01*
X105677312Y-123891928D02*
X105463027Y-123891928D01*
X105463027Y-123891928D02*
X105320169Y-123820500D01*
X105320169Y-123820500D02*
X105248741Y-123677642D01*
X105248741Y-123677642D02*
X105248741Y-123606214D01*
X105248741Y-123606214D02*
X105320169Y-123463357D01*
X105320169Y-123463357D02*
X105463027Y-123391928D01*
X105463027Y-123391928D02*
X105677312Y-123391928D01*
X105677312Y-123391928D02*
X105820169Y-123463357D01*
X106320170Y-123391928D02*
X106891598Y-123391928D01*
X106534455Y-122891928D02*
X106534455Y-124177642D01*
X106534455Y-124177642D02*
X106605884Y-124320500D01*
X106605884Y-124320500D02*
X106748741Y-124391928D01*
X106748741Y-124391928D02*
X106891598Y-124391928D01*
X107963027Y-124320500D02*
X107820170Y-124391928D01*
X107820170Y-124391928D02*
X107534456Y-124391928D01*
X107534456Y-124391928D02*
X107391598Y-124320500D01*
X107391598Y-124320500D02*
X107320170Y-124177642D01*
X107320170Y-124177642D02*
X107320170Y-123606214D01*
X107320170Y-123606214D02*
X107391598Y-123463357D01*
X107391598Y-123463357D02*
X107534456Y-123391928D01*
X107534456Y-123391928D02*
X107820170Y-123391928D01*
X107820170Y-123391928D02*
X107963027Y-123463357D01*
X107963027Y-123463357D02*
X108034456Y-123606214D01*
X108034456Y-123606214D02*
X108034456Y-123749071D01*
X108034456Y-123749071D02*
X107320170Y-123891928D01*
X108677312Y-124391928D02*
X108677312Y-123391928D01*
X108677312Y-123677642D02*
X108748741Y-123534785D01*
X108748741Y-123534785D02*
X108820170Y-123463357D01*
X108820170Y-123463357D02*
X108963027Y-123391928D01*
X108963027Y-123391928D02*
X109105884Y-123391928D01*
X109605883Y-124249071D02*
X109677312Y-124320500D01*
X109677312Y-124320500D02*
X109605883Y-124391928D01*
X109605883Y-124391928D02*
X109534455Y-124320500D01*
X109534455Y-124320500D02*
X109605883Y-124249071D01*
X109605883Y-124249071D02*
X109605883Y-124391928D01*
X110320169Y-124391928D02*
X110320169Y-122891928D01*
X110463027Y-123820500D02*
X110891598Y-124391928D01*
X110891598Y-123391928D02*
X110320169Y-123963357D01*
X111534455Y-124391928D02*
X111534455Y-123391928D01*
X111534455Y-122891928D02*
X111463027Y-122963357D01*
X111463027Y-122963357D02*
X111534455Y-123034785D01*
X111534455Y-123034785D02*
X111605884Y-122963357D01*
X111605884Y-122963357D02*
X111534455Y-122891928D01*
X111534455Y-122891928D02*
X111534455Y-123034785D01*
X112891599Y-124320500D02*
X112748741Y-124391928D01*
X112748741Y-124391928D02*
X112463027Y-124391928D01*
X112463027Y-124391928D02*
X112320170Y-124320500D01*
X112320170Y-124320500D02*
X112248741Y-124249071D01*
X112248741Y-124249071D02*
X112177313Y-124106214D01*
X112177313Y-124106214D02*
X112177313Y-123677642D01*
X112177313Y-123677642D02*
X112248741Y-123534785D01*
X112248741Y-123534785D02*
X112320170Y-123463357D01*
X112320170Y-123463357D02*
X112463027Y-123391928D01*
X112463027Y-123391928D02*
X112748741Y-123391928D01*
X112748741Y-123391928D02*
X112891599Y-123463357D01*
X114177313Y-124391928D02*
X114177313Y-123606214D01*
X114177313Y-123606214D02*
X114105884Y-123463357D01*
X114105884Y-123463357D02*
X113963027Y-123391928D01*
X113963027Y-123391928D02*
X113677313Y-123391928D01*
X113677313Y-123391928D02*
X113534455Y-123463357D01*
X114177313Y-124320500D02*
X114034455Y-124391928D01*
X114034455Y-124391928D02*
X113677313Y-124391928D01*
X113677313Y-124391928D02*
X113534455Y-124320500D01*
X113534455Y-124320500D02*
X113463027Y-124177642D01*
X113463027Y-124177642D02*
X113463027Y-124034785D01*
X113463027Y-124034785D02*
X113534455Y-123891928D01*
X113534455Y-123891928D02*
X113677313Y-123820500D01*
X113677313Y-123820500D02*
X114034455Y-123820500D01*
X114034455Y-123820500D02*
X114177313Y-123749071D01*
X115534456Y-124391928D02*
X115534456Y-122891928D01*
X115534456Y-124320500D02*
X115391598Y-124391928D01*
X115391598Y-124391928D02*
X115105884Y-124391928D01*
X115105884Y-124391928D02*
X114963027Y-124320500D01*
X114963027Y-124320500D02*
X114891598Y-124249071D01*
X114891598Y-124249071D02*
X114820170Y-124106214D01*
X114820170Y-124106214D02*
X114820170Y-123677642D01*
X114820170Y-123677642D02*
X114891598Y-123534785D01*
X114891598Y-123534785D02*
X114963027Y-123463357D01*
X114963027Y-123463357D02*
X115105884Y-123391928D01*
X115105884Y-123391928D02*
X115391598Y-123391928D01*
X115391598Y-123391928D02*
X115534456Y-123463357D01*
X115891599Y-124534785D02*
X117034456Y-124534785D01*
X117391598Y-123391928D02*
X117391598Y-124891928D01*
X117391598Y-123463357D02*
X117534456Y-123391928D01*
X117534456Y-123391928D02*
X117820170Y-123391928D01*
X117820170Y-123391928D02*
X117963027Y-123463357D01*
X117963027Y-123463357D02*
X118034456Y-123534785D01*
X118034456Y-123534785D02*
X118105884Y-123677642D01*
X118105884Y-123677642D02*
X118105884Y-124106214D01*
X118105884Y-124106214D02*
X118034456Y-124249071D01*
X118034456Y-124249071D02*
X117963027Y-124320500D01*
X117963027Y-124320500D02*
X117820170Y-124391928D01*
X117820170Y-124391928D02*
X117534456Y-124391928D01*
X117534456Y-124391928D02*
X117391598Y-124320500D01*
X119391599Y-124320500D02*
X119248741Y-124391928D01*
X119248741Y-124391928D02*
X118963027Y-124391928D01*
X118963027Y-124391928D02*
X118820170Y-124320500D01*
X118820170Y-124320500D02*
X118748741Y-124249071D01*
X118748741Y-124249071D02*
X118677313Y-124106214D01*
X118677313Y-124106214D02*
X118677313Y-123677642D01*
X118677313Y-123677642D02*
X118748741Y-123534785D01*
X118748741Y-123534785D02*
X118820170Y-123463357D01*
X118820170Y-123463357D02*
X118963027Y-123391928D01*
X118963027Y-123391928D02*
X119248741Y-123391928D01*
X119248741Y-123391928D02*
X119391599Y-123463357D01*
X120034455Y-124391928D02*
X120034455Y-122891928D01*
X120034455Y-123463357D02*
X120177313Y-123391928D01*
X120177313Y-123391928D02*
X120463027Y-123391928D01*
X120463027Y-123391928D02*
X120605884Y-123463357D01*
X120605884Y-123463357D02*
X120677313Y-123534785D01*
X120677313Y-123534785D02*
X120748741Y-123677642D01*
X120748741Y-123677642D02*
X120748741Y-124106214D01*
X120748741Y-124106214D02*
X120677313Y-124249071D01*
X120677313Y-124249071D02*
X120605884Y-124320500D01*
X120605884Y-124320500D02*
X120463027Y-124391928D01*
X120463027Y-124391928D02*
X120177313Y-124391928D01*
X120177313Y-124391928D02*
X120034455Y-124320500D01*
D10*
D11*
X90007200Y-119505800D02*
X198007200Y-119505800D01*
D10*
D11*
X91391598Y-121620500D02*
X91605884Y-121691928D01*
X91605884Y-121691928D02*
X91963026Y-121691928D01*
X91963026Y-121691928D02*
X92105884Y-121620500D01*
X92105884Y-121620500D02*
X92177312Y-121549071D01*
X92177312Y-121549071D02*
X92248741Y-121406214D01*
X92248741Y-121406214D02*
X92248741Y-121263357D01*
X92248741Y-121263357D02*
X92177312Y-121120500D01*
X92177312Y-121120500D02*
X92105884Y-121049071D01*
X92105884Y-121049071D02*
X91963026Y-120977642D01*
X91963026Y-120977642D02*
X91677312Y-120906214D01*
X91677312Y-120906214D02*
X91534455Y-120834785D01*
X91534455Y-120834785D02*
X91463026Y-120763357D01*
X91463026Y-120763357D02*
X91391598Y-120620500D01*
X91391598Y-120620500D02*
X91391598Y-120477642D01*
X91391598Y-120477642D02*
X91463026Y-120334785D01*
X91463026Y-120334785D02*
X91534455Y-120263357D01*
X91534455Y-120263357D02*
X91677312Y-120191928D01*
X91677312Y-120191928D02*
X92034455Y-120191928D01*
X92034455Y-120191928D02*
X92248741Y-120263357D01*
X92891597Y-121691928D02*
X92891597Y-120191928D01*
X93534455Y-121691928D02*
X93534455Y-120906214D01*
X93534455Y-120906214D02*
X93463026Y-120763357D01*
X93463026Y-120763357D02*
X93320169Y-120691928D01*
X93320169Y-120691928D02*
X93105883Y-120691928D01*
X93105883Y-120691928D02*
X92963026Y-120763357D01*
X92963026Y-120763357D02*
X92891597Y-120834785D01*
X94820169Y-121620500D02*
X94677312Y-121691928D01*
X94677312Y-121691928D02*
X94391598Y-121691928D01*
X94391598Y-121691928D02*
X94248740Y-121620500D01*
X94248740Y-121620500D02*
X94177312Y-121477642D01*
X94177312Y-121477642D02*
X94177312Y-120906214D01*
X94177312Y-120906214D02*
X94248740Y-120763357D01*
X94248740Y-120763357D02*
X94391598Y-120691928D01*
X94391598Y-120691928D02*
X94677312Y-120691928D01*
X94677312Y-120691928D02*
X94820169Y-120763357D01*
X94820169Y-120763357D02*
X94891598Y-120906214D01*
X94891598Y-120906214D02*
X94891598Y-121049071D01*
X94891598Y-121049071D02*
X94177312Y-121191928D01*
X96105883Y-121620500D02*
X95963026Y-121691928D01*
X95963026Y-121691928D02*
X95677312Y-121691928D01*
X95677312Y-121691928D02*
X95534454Y-121620500D01*
X95534454Y-121620500D02*
X95463026Y-121477642D01*
X95463026Y-121477642D02*
X95463026Y-120906214D01*
X95463026Y-120906214D02*
X95534454Y-120763357D01*
X95534454Y-120763357D02*
X95677312Y-120691928D01*
X95677312Y-120691928D02*
X95963026Y-120691928D01*
X95963026Y-120691928D02*
X96105883Y-120763357D01*
X96105883Y-120763357D02*
X96177312Y-120906214D01*
X96177312Y-120906214D02*
X96177312Y-121049071D01*
X96177312Y-121049071D02*
X95463026Y-121191928D01*
X96605883Y-120691928D02*
X97177311Y-120691928D01*
X96820168Y-120191928D02*
X96820168Y-121477642D01*
X96820168Y-121477642D02*
X96891597Y-121620500D01*
X96891597Y-121620500D02*
X97034454Y-121691928D01*
X97034454Y-121691928D02*
X97177311Y-121691928D01*
X97677311Y-121549071D02*
X97748740Y-121620500D01*
X97748740Y-121620500D02*
X97677311Y-121691928D01*
X97677311Y-121691928D02*
X97605883Y-121620500D01*
X97605883Y-121620500D02*
X97677311Y-121549071D01*
X97677311Y-121549071D02*
X97677311Y-121691928D01*
X97677311Y-120763357D02*
X97748740Y-120834785D01*
X97748740Y-120834785D02*
X97677311Y-120906214D01*
X97677311Y-120906214D02*
X97605883Y-120834785D01*
X97605883Y-120834785D02*
X97677311Y-120763357D01*
X97677311Y-120763357D02*
X97677311Y-120906214D01*
D10*
D12*
D10*
D11*
D10*
D11*
D10*
D11*
D10*
D11*
D10*
D11*
X110007200Y-129505800D02*
X110007200Y-132505800D01*
D10*
D11*
X174007200Y-129505800D02*
X174007200Y-136005800D01*
D14*
%TO.P,J1,MH4,SHIELD*%
%TO.N,GNDPWR*%
X113125000Y-32627500D03*
%TO.P,J1,MH3,SHIELD*%
X104145000Y-32627500D03*
%TO.P,J1,MH2,SHIELD*%
X104505000Y-37027500D03*
%TO.P,J1,MH1,SHIELD*%
X112765000Y-37027500D03*
D15*
%TO.P,J1,B12,GND*%
X111435000Y-37617500D03*
%TO.P,J1,B11,RX1+*%
X111035000Y-36917500D03*
%TO.P,J1,B10,RX1-*%
X110235000Y-36917500D03*
%TO.P,J1,B9,VBUS*%
X109835000Y-37617500D03*
%TO.P,J1,B8,SBU2*%
X109435000Y-36917500D03*
%TO.P,J1,B7,D-*%
X109035000Y-37617500D03*
%TO.P,J1,B6,D+*%
X108235000Y-37617500D03*
%TO.P,J1,B5,CC2*%
X107835000Y-36917500D03*
%TO.P,J1,B4,VBUS*%
X107435000Y-37617500D03*
%TO.P,J1,B3,TX2-*%
X107035000Y-36917500D03*
%TO.P,J1,B2,TX2+*%
X106235000Y-36917500D03*
%TO.P,J1,B1,GND*%
X105835000Y-37617500D03*
%TD*%
%TO.P,J3,B1,GND*%
%TO.N,GND*%
X106515000Y-77637500D03*
%TO.P,J3,B2,TX2+*%
%TO.N,B2*%
X106115000Y-78337500D03*
%TO.P,J3,B3,TX2-*%
%TO.N,B3*%
X105315000Y-78337500D03*
%TO.P,J3,B4,VBUS*%
%TO.N,V_{BUS}*%
X104915000Y-77637500D03*
%TO.P,J3,B5,CC2*%
%TO.N,B5*%
X104515000Y-78337500D03*
%TO.P,J3,B6,D+*%
%TO.N,B6*%
X104115000Y-77637500D03*
%TO.P,J3,B7,D-*%
%TO.N,B7*%
X103315000Y-77637500D03*
%TO.P,J3,B8,SBU2*%
%TO.N,B8*%
X102915000Y-78337500D03*
%TO.P,J3,B9,VBUS*%
%TO.N,V_{BUS}*%
X102515000Y-77637500D03*
%TO.P,J3,B10,RX1-*%
%TO.N,B10*%
X102115000Y-78337500D03*
%TO.P,J3,B11,RX1+*%
%TO.N,B11*%
X101315000Y-78337500D03*
%TO.P,J3,B12,GND*%
%TO.N,GND*%
X100915000Y-77637500D03*
D14*
%TO.P,J3,MH1*%
%TO.N,N/C*%
X99585000Y-78227500D03*
%TO.P,J3,MH2*%
X107845000Y-78227500D03*
%TO.P,J3,MH3,SHIELD*%
%TO.N,SHIELD*%
X108205000Y-82627500D03*
%TO.P,J3,MH4,SHIELD*%
X99225000Y-82627500D03*
%TD*%
D16*
%TO.P,J8,MH4*%
%TO.N,N/C*%
X141645000Y-49837500D03*
%TO.P,J8,MH3*%
X145445000Y-49837500D03*
%TO.P,J8,MH2*%
X145445000Y-58477500D03*
%TO.P,J8,MH1*%
X141645000Y-58477500D03*
D17*
%TO.P,J8,B12,GND*%
%TO.N,GNDPWR*%
X141565000Y-51407500D03*
D18*
%TO.P,J8,B9,VBUS*%
%TO.N,+3V3*%
X141565000Y-52637500D03*
D19*
%TO.P,J8,B5,CC2*%
%TO.N,unconnected-(J8-CC2-PadB5)*%
X141565000Y-54657500D03*
D17*
%TO.P,J8,A12,GND*%
%TO.N,GNDPWR*%
X141565000Y-56907500D03*
D18*
%TO.P,J8,A9,VBUS*%
%TO.N,+3V3*%
X141565000Y-55677500D03*
D19*
%TO.P,J8,A5,CC1*%
%TO.N,unconnected-(J8-CC1-PadA5)*%
X141565000Y-53657500D03*
%TD*%
D20*
%TO.P,J5,9,Shield*%
%TO.N,GNDPWR*%
X119060000Y-32627500D03*
%TO.P,J5,8,Shield*%
X126210000Y-32627500D03*
%TD*%
D21*
%TO.P,J7,MH2,SHIELD*%
%TO.N,GNDPWR*%
X66945000Y-36257500D03*
%TO.P,J7,MH1,SHIELD*%
X80085000Y-36257500D03*
D22*
%TO.P,J7,9,SSTX+*%
X77515000Y-39757500D03*
%TO.P,J7,8,SSTX-*%
X75515000Y-39757500D03*
%TO.P,J7,7,DRAIN*%
X73515000Y-39757500D03*
%TO.P,J7,6,SSRX+*%
X71515000Y-39757500D03*
%TO.P,J7,5,SSRX-*%
X69515000Y-39757500D03*
%TO.P,J7,4,GND*%
X70015000Y-38257500D03*
%TO.P,J7,3,D+*%
X72515000Y-38257500D03*
%TO.P,J7,2,D-*%
X74515000Y-38257500D03*
D23*
%TO.P,J7,1,VBUS*%
X77015000Y-38257500D03*
%TD*%
%TO.P,J4,1,VBUS*%
%TO.N,V_{BUS}*%
X133035000Y-76177500D03*
D22*
%TO.P,J4,2,D-*%
%TO.N,A6*%
X135535000Y-76177500D03*
%TO.P,J4,3,D+*%
%TO.N,A7*%
X137535000Y-76177500D03*
%TO.P,J4,4,GND*%
%TO.N,GND*%
X140035000Y-76177500D03*
%TO.P,J4,5,SSRX-*%
%TO.N,B10*%
X140535000Y-74677500D03*
%TO.P,J4,6,SSRX+*%
%TO.N,B11*%
X138535000Y-74677500D03*
%TO.P,J4,7,DRAIN*%
%TO.N,GND*%
X136535000Y-74677500D03*
%TO.P,J4,8,SSTX-*%
%TO.N,A3*%
X134535000Y-74677500D03*
%TO.P,J4,9,SSTX+*%
%TO.N,A2*%
X132535000Y-74677500D03*
D21*
%TO.P,J4,MH1,SHIELD*%
%TO.N,SHIELD*%
X129965000Y-78177500D03*
%TO.P,J4,MH2,SHIELD*%
X143105000Y-78177500D03*
%TD*%
D24*
%TO.P,J2,11,SHIELD*%
%TO.N,GNDPWR*%
X98155000Y-32627500D03*
%TO.P,J2,10,SHIELD*%
X86115000Y-32627500D03*
D25*
%TO.P,J2,9,SSRX+*%
X87885000Y-39337500D03*
%TO.P,J2,8,SSRX-*%
X89635000Y-39337500D03*
%TO.P,J2,7,DRAIN*%
X92135000Y-39337500D03*
%TO.P,J2,6,SSTX+*%
X94635000Y-39337500D03*
%TO.P,J2,5,SSTX-*%
X96385000Y-39337500D03*
%TO.P,J2,4,GND*%
X90885000Y-35337500D03*
%TO.P,J2,3,D+*%
X93385000Y-35337500D03*
%TO.P,J2,2,D-*%
X93385000Y-37337500D03*
%TO.P,J2,1,VBUS*%
X90885000Y-37337500D03*
%TD*%
D26*
%TO.N,V_{BUS}*%
X130896432Y-74629407D03*
%TO.N,+3V3*%
X136665000Y-47327500D03*
%TO.N,A6*%
X99615000Y-73227500D03*
X125265000Y-81427500D03*
X133065000Y-78627500D03*
X103465000Y-75127500D03*
X103465000Y-73227500D03*
X112015000Y-75127500D03*
%TO.N,GND*%
X100965000Y-74727500D03*
X113015000Y-74677500D03*
X134395000Y-73077500D03*
X131915000Y-71077500D03*
X106465000Y-74677500D03*
%TO.N,A8*%
X104465000Y-72727500D03*
X107765000Y-72727500D03*
%TO.N,A3*%
X110725000Y-67827500D03*
X120596801Y-67809301D03*
X132635000Y-72777500D03*
X101965000Y-71277500D03*
%TO.N,B5*%
X80015000Y-66427500D03*
%TO.N,A7*%
X103965000Y-75777500D03*
X110815000Y-75777500D03*
X103965000Y-72727500D03*
X135115000Y-78627500D03*
X125057881Y-82130667D03*
X99615000Y-72727500D03*
%TO.N,A5*%
X99615000Y-73727500D03*
X102965000Y-73727500D03*
%TO.N,B8*%
X124190000Y-79852500D03*
X105205000Y-80627500D03*
%TO.N,A10*%
X109215000Y-71927500D03*
X105465000Y-73727500D03*
%TO.N,B11*%
X138535000Y-69700000D03*
X121800000Y-69650000D03*
X111550000Y-69650000D03*
X105015000Y-66577500D03*
%TO.N,V_{BUS}*%
X119765000Y-74227500D03*
X113665000Y-74227500D03*
X102465000Y-74227500D03*
X99615000Y-74227500D03*
X104965000Y-74227500D03*
%TO.N,B7*%
X90015000Y-71827500D03*
%TO.N,A2*%
X95165000Y-75177500D03*
X95165000Y-81377500D03*
X95166576Y-72208744D03*
%TO.N,B10*%
X110015000Y-73500000D03*
X110015000Y-68377500D03*
X119915000Y-73500000D03*
%TO.N,B6*%
X85015000Y-72127500D03*
%TO.N,B3*%
X120015000Y-66427500D03*
%TO.N,B2*%
X115015000Y-66427500D03*
%TO.N,GNDPWR*%
X137235000Y-45157500D03*
%TD*%
D27*
%TO.N,B2*%
X115015000Y-72820646D02*
G75*
G02*
X114429191Y-74234836I-2000000J46D01*
G01*
%TO.N,B10*%
X139943285Y-74085787D02*
G75*
G03*
X138529073Y-73500020I-1414185J-1414213D01*
G01*
X138529073Y-73500000D02*
X119915000Y-73500000D01*
X140535000Y-74677500D02*
X139943286Y-74085786D01*
%TO.N,A3*%
X131727893Y-71870393D02*
G75*
G03*
X131020786Y-71577510I-707093J-707107D01*
G01*
%TO.N,B11*%
X110550000Y-66577500D02*
G75*
G02*
X111550000Y-67577500I0J-1000000D01*
G01*
X111550000Y-69650000D02*
X111550000Y-67577500D01*
X110550000Y-66577500D02*
X105015000Y-66577500D01*
%TO.N,A3*%
X104829214Y-68413288D02*
G75*
G02*
X106243427Y-67827520I1414186J-1414212D01*
G01*
X123295000Y-71577500D02*
G75*
G02*
X121295000Y-69577500I0J2000000D01*
G01*
X121002107Y-68214607D02*
G75*
G02*
X121294990Y-68921714I-707107J-707093D01*
G01*
%TO.N,A2*%
X100092893Y-81692893D02*
G75*
G03*
X99385786Y-81400010I-707093J-707107D01*
G01*
X101091714Y-82277500D02*
G75*
G02*
X100384600Y-81984614I-14J1000000D01*
G01*
X95187500Y-81400000D02*
X95165000Y-81377500D01*
X99385786Y-81400000D02*
X95187500Y-81400000D01*
X100384607Y-81984607D02*
X100092893Y-81692893D01*
X105636573Y-82277500D02*
X101091714Y-82277500D01*
X122780470Y-81070000D02*
X108500927Y-81070000D01*
X130738374Y-75645699D02*
X129861625Y-75645699D01*
X132535000Y-74677500D02*
X132152587Y-75059913D01*
X108500927Y-81070000D02*
G75*
G03*
X107086699Y-81655773I-27J-2000000D01*
G01*
X107086713Y-81655787D02*
X107050786Y-81691714D01*
X128447411Y-76231486D02*
X124194683Y-80484214D01*
X124194683Y-80484214D02*
G75*
G02*
X122780470Y-81069978I-1414183J1414214D01*
G01*
X129861625Y-75645699D02*
G75*
G03*
X128447398Y-76231473I-25J-2000001D01*
G01*
X132152586Y-75059912D02*
G75*
G02*
X130738374Y-75645680I-1414186J1414212D01*
G01*
X107050785Y-81691713D02*
G75*
G02*
X105636573Y-82277480I-1414185J1414213D01*
G01*
%TO.N,B6*%
X103622107Y-79620393D02*
G75*
G03*
X103914990Y-78913286I-707107J707093D01*
G01*
%TO.N,B11*%
X98038509Y-78788507D02*
G75*
G02*
X97452720Y-77374295I1414191J1414207D01*
G01*
X98156525Y-78906523D02*
G75*
G03*
X99570738Y-79492280I1414175J1414223D01*
G01*
X100651179Y-79492311D02*
X99570738Y-79492311D01*
X97452722Y-77374295D02*
X97452722Y-74839179D01*
X98036574Y-73555926D02*
X105015000Y-66577500D01*
X101365000Y-78387500D02*
X101365000Y-78527500D01*
X101315000Y-78337500D02*
X101365000Y-78387500D01*
X97452723Y-74839179D02*
G75*
G02*
X98036549Y-73555901I2013777J-141721D01*
G01*
X101364999Y-78527500D02*
G75*
G02*
X100651175Y-79492299I-1017299J6200D01*
G01*
X98156524Y-78906524D02*
X98038508Y-78788508D01*
%TO.N,GND*%
X101015000Y-74677500D02*
X100965000Y-74727500D01*
X106465000Y-74677500D02*
X101015000Y-74677500D01*
%TO.N,B11*%
X138485000Y-69650000D02*
X121800000Y-69650000D01*
X138535000Y-69700000D02*
X138485000Y-69650000D01*
%TO.N,V_{BUS}*%
X129679025Y-74227500D02*
X119765000Y-74227500D01*
X130896432Y-74629407D02*
G75*
G03*
X129679025Y-74227493I-1217432J-1642893D01*
G01*
%TO.N,GNDPWR*%
X137235000Y-45157500D02*
X137235000Y-51407500D01*
%TO.N,+3V3*%
X136665000Y-47327500D02*
X136665000Y-52637500D01*
%TO.N,GNDPWR*%
X137235000Y-51407500D02*
X141565000Y-51407500D01*
%TO.N,+3V3*%
X136665000Y-52637500D02*
X141565000Y-52637500D01*
%TO.N,B2*%
X108442359Y-79807500D02*
G75*
G03*
X109149486Y-79514627I41J1000000D01*
G01*
X106752107Y-79514607D02*
G75*
G03*
X107459214Y-79807490I707093J707107D01*
G01*
X106407893Y-79170393D02*
G75*
G02*
X106115010Y-78463286I707107J707093D01*
G01*
X107459214Y-79807500D02*
X108442359Y-79807500D01*
X109149466Y-79514607D02*
X114429214Y-74234859D01*
X115015000Y-72820646D02*
X115015000Y-66427500D01*
X106407893Y-79170393D02*
X106752107Y-79514607D01*
X106115000Y-78337500D02*
X106115000Y-78463286D01*
%TO.N,B8*%
X124187286Y-79852500D02*
X124190000Y-79852500D01*
X123906827Y-80132959D02*
X124187286Y-79852500D01*
X105205000Y-80627500D02*
X122586573Y-80627500D01*
X122586573Y-80627499D02*
G75*
G03*
X123906813Y-80132942I-3373J2018499D01*
G01*
%TO.N,A7*%
X130736573Y-82177500D02*
G75*
G03*
X132150800Y-81591728I27J2000000D01*
G01*
%TO.N,A6*%
X130850786Y-80841712D02*
G75*
G02*
X129436573Y-81427480I-1414186J1414212D01*
G01*
%TO.N,A3*%
X121295000Y-69577500D02*
X121295000Y-68921714D01*
X132635000Y-72777500D02*
X131727893Y-71870393D01*
X131020786Y-71577500D02*
X123295000Y-71577500D01*
X121002107Y-68214607D02*
X120596801Y-67809301D01*
%TO.N,GND*%
X133768553Y-72931053D02*
G75*
G03*
X134122107Y-73077495I353547J353553D01*
G01*
X138927893Y-77077500D02*
G75*
G03*
X139281449Y-76931057I7J500000D01*
G01*
X137015760Y-76931053D02*
G75*
G03*
X137369314Y-77077490I353540J353553D01*
G01*
X136535000Y-76243186D02*
G75*
G03*
X136681439Y-76596746I500000J-14D01*
G01*
X134395000Y-73077500D02*
X134122107Y-73077500D01*
X133768553Y-72931053D02*
X131915000Y-71077500D01*
%TO.N,A3*%
X104829213Y-68413287D02*
X101965000Y-71277500D01*
X110725000Y-67827500D02*
X106243427Y-67827500D01*
X110725000Y-67827500D02*
X110695000Y-67857500D01*
%TO.N,+3V3*%
X141565000Y-52637500D02*
X142593000Y-52637500D01*
X142593000Y-55677500D02*
X141565000Y-55677500D01*
X142593000Y-52637500D02*
X142593000Y-55677500D01*
%TO.N,A6*%
X112015000Y-75127500D02*
X103465000Y-75127500D01*
X103465000Y-73227500D02*
X99615000Y-73227500D01*
X130850787Y-80841713D02*
X133065000Y-78627500D01*
X125265000Y-81427500D02*
X129436573Y-81427500D01*
%TO.N,GND*%
X138927893Y-77077500D02*
X137369314Y-77077500D01*
X136535000Y-76243186D02*
X136535000Y-74677500D01*
X106465000Y-74677500D02*
X113015000Y-74677500D01*
X140035000Y-76177500D02*
X139281446Y-76931054D01*
X137015760Y-76931053D02*
X136681446Y-76596739D01*
%TO.N,A8*%
X104465000Y-72727500D02*
X107765000Y-72727500D01*
%TO.N,B5*%
X104515000Y-78827500D02*
X104515000Y-78337500D01*
X91621854Y-80827500D02*
X102515000Y-80827500D01*
X80600787Y-70634860D02*
X90207641Y-80241714D01*
X80015000Y-66427500D02*
X80015000Y-69220646D01*
X102515000Y-80827500D02*
G75*
G03*
X104515000Y-78827500I0J2000000D01*
G01*
X80600787Y-70634860D02*
G75*
G02*
X80014968Y-69220646I1414213J1414260D01*
G01*
X91621854Y-80827500D02*
G75*
G02*
X90207664Y-80241691I46J2000000D01*
G01*
%TO.N,A7*%
X110815000Y-75777500D02*
X103965000Y-75777500D01*
X103965000Y-72727500D02*
X99615000Y-72727500D01*
X130736573Y-82177500D02*
X125065000Y-82177500D01*
X125065000Y-82177500D02*
X125065000Y-82137786D01*
X135115000Y-78627500D02*
X132150786Y-81591714D01*
X125065000Y-82137786D02*
X125057881Y-82130667D01*
%TO.N,A5*%
X102965000Y-73727500D02*
X99615000Y-73727500D01*
%TO.N,A10*%
X105465000Y-73727500D02*
X106572970Y-73727500D01*
X109201397Y-71927500D02*
X109215000Y-71927500D01*
X107987184Y-73141713D02*
X109201397Y-71927500D01*
X107987184Y-73141713D02*
G75*
G02*
X106572970Y-73727478I-1414184J1414213D01*
G01*
%TO.N,V_{BUS}*%
X102465000Y-74227500D02*
X99615000Y-74227500D01*
X104965000Y-74227500D02*
X113665000Y-74227500D01*
X102465000Y-74227500D02*
X104965000Y-74227500D01*
%TO.N,SHIELD*%
X129965000Y-78177500D02*
X143105000Y-78177500D01*
%TO.N,B7*%
X92393427Y-79927500D02*
X101345102Y-79927500D01*
X90015000Y-71827500D02*
X90015000Y-77549073D01*
X102759316Y-79341713D02*
X103441777Y-78659252D01*
X90600787Y-78963287D02*
X90979214Y-79341714D01*
X103515000Y-77837500D02*
X103315000Y-77637500D01*
X103515000Y-78482476D02*
X103515000Y-77837500D01*
X101345102Y-79927500D02*
G75*
G03*
X102759315Y-79341712I-2J2000000D01*
G01*
X103515000Y-78482476D02*
G75*
G02*
X103441789Y-78659264I-250000J-24D01*
G01*
X90015000Y-77549073D02*
G75*
G03*
X90600773Y-78963301I2000000J-27D01*
G01*
X90979215Y-79341713D02*
G75*
G03*
X92393427Y-79927480I1414185J1414213D01*
G01*
%TO.N,A2*%
X95165000Y-72210320D02*
X95166576Y-72208744D01*
X95165000Y-75177500D02*
X95165000Y-72210320D01*
%TO.N,B10*%
X110015000Y-73527500D02*
X110015000Y-68377500D01*
%TO.N,B6*%
X103915000Y-77837500D02*
X103915000Y-78913286D01*
X103622107Y-79620393D02*
X103450787Y-79791713D01*
X102036573Y-80377500D02*
X92273934Y-80377500D01*
X85015000Y-73118566D02*
X85015000Y-72127500D01*
X90859720Y-79791713D02*
X85600786Y-74532779D01*
X104115000Y-77637500D02*
X103915000Y-77837500D01*
X85015000Y-73118566D02*
G75*
G03*
X85600769Y-74532796I2000000J-34D01*
G01*
X92273934Y-80377500D02*
G75*
G02*
X90859703Y-79791730I-34J2000000D01*
G01*
X103450786Y-79791712D02*
G75*
G02*
X102036573Y-80377480I-1414186J1414212D01*
G01*
%TO.N,B3*%
X120015000Y-71899073D02*
X120015000Y-66427500D01*
X105315000Y-78337500D02*
X105315000Y-78350609D01*
X105607893Y-79057716D02*
X106484784Y-79934607D01*
X107191891Y-80227500D02*
X112100786Y-80227500D01*
X112807893Y-79934607D02*
X119429214Y-73313286D01*
X112807893Y-79934607D02*
G75*
G02*
X112100786Y-80227490I-707093J707107D01*
G01*
X107191891Y-80227500D02*
G75*
G02*
X106484789Y-79934602I9J1000000D01*
G01*
X119429213Y-73313285D02*
G75*
G03*
X120014980Y-71899073I-1414213J1414185D01*
G01*
X105607893Y-79057716D02*
G75*
G02*
X105314994Y-78350609I707107J707116D01*
G01*
%TO.N,GNDPWR*%
X141565000Y-51407500D02*
X143053000Y-51407500D01*
X143053000Y-51407500D02*
X143053000Y-56907500D01*
X143053000Y-56907500D02*
X141565000Y-56907500D01*
%TD*%
M02*
